<svg width="400" height="200" viewBox="0 0 400 200" xmlns="http://www.w3.org/2000/svg">
  <defs>
    <linearGradient id="salesbotGradient" x1="0%" y1="0%" x2="100%" y2="100%">
      <stop offset="0%" style="stop-color:#1a365d;stop-opacity:1" />
      <stop offset="50%" style="stop-color:#2d5aa0;stop-opacity:1" />
      <stop offset="100%" style="stop-color:#4299e1;stop-opacity:1" />
    </linearGradient>
  </defs>
  <rect width="400" height="200" fill="url(#salesbotGradient)"/>
  
  <!-- Robot Icon -->
  <g transform="translate(180, 70)">
    <rect x="0" y="0" width="40" height="30" rx="5" fill="rgba(255,255,255,0.9)"/>
    <circle cx="12" cy="12" r="3" fill="#2d5aa0"/>
    <circle cx="28" cy="12" r="3" fill="#2d5aa0"/>
    <rect x="15" y="18" width="10" height="4" rx="2" fill="#2d5aa0"/>
    <rect x="18" y="30" width="4" height="8" fill="rgba(255,255,255,0.9)"/>
    <circle cx="20" cy="45" r="6" fill="rgba(255,255,255,0.7)"/>
  </g>
  
  <!-- Email Icons -->
  <g transform="translate(80, 120)">
    <rect x="0" y="0" width="20" height="14" rx="2" fill="rgba(255,255,255,0.8)"/>
    <path d="M0 2 L10 8 L20 2" stroke="#2d5aa0" stroke-width="1" fill="none"/>
  </g>
  
  <g transform="translate(120, 110)">
    <rect x="0" y="0" width="20" height="14" rx="2" fill="rgba(255,255,255,0.8)"/>
    <path d="M0 2 L10 8 L20 2" stroke="#2d5aa0" stroke-width="1" fill="none"/>
  </g>
  
  <g transform="translate(280, 115)">
    <rect x="0" y="0" width="20" height="14" rx="2" fill="rgba(255,255,255,0.8)"/>
    <path d="M0 2 L10 8 L20 2" stroke="#2d5aa0" stroke-width="1" fill="none"/>
  </g>
  
  <!-- CRM Database -->
  <g transform="translate(320, 130)">
    <ellipse cx="15" cy="5" rx="15" ry="3" fill="rgba(255,255,255,0.8)"/>
    <rect x="0" y="2" width="30" height="8" fill="rgba(255,255,255,0.6)"/>
    <ellipse cx="15" cy="10" rx="15" ry="3" fill="rgba(255,255,255,0.8)"/>
  </g>
  
  <text x="200" y="170" font-family="Inter, sans-serif" font-size="16" font-weight="600" text-anchor="middle" fill="white">SalesBot Automation</text>
  <text x="200" y="185" font-family="Inter, sans-serif" font-size="12" font-weight="400" text-anchor="middle" fill="rgba(255,255,255,0.8)">CRM Integration • Email Automation • Lead Processing</text>
</svg>